<svg xmlns="http://www.w3.org/2000/svg" width="18" height="21" viewBox="0 0 18 21" fill="none">
<path d="M15.9141 11.2969C15.8438 11.3672 15.7695 11.4023 15.6914 11.4023C15.5742 11.4023 15.4648 11.332 15.3633 11.1914C15.2695 11.043 15.1875 10.9297 15.1172 10.8516C14.4609 10.1953 13.8945 10.0625 13.418 10.4531C13.3242 10.5156 13.3086 10.6016 13.3711 10.7109C13.6992 11.2188 13.9727 11.7031 14.1914 12.1641C14.6602 13.1875 14.8242 14.2188 14.6836 15.2578C14.5508 16.2969 14.1992 17.2305 13.6289 18.0586C13.0586 18.8867 12.3164 19.5625 11.4023 20.0859C10.4961 20.6172 9.50391 20.8828 8.42578 20.8828C7.04297 20.8828 5.85156 20.5547 4.85156 19.8984C3.85156 19.25 3.30859 18.3164 3.22266 17.0977L3.43359 16.1367C3.50391 15.8164 3.58984 15.5 3.69141 15.1875C3.97266 14.3828 3.9375 13.8398 3.58594 13.5586C3.39062 13.4023 3.16797 13.3242 2.91797 13.3242C2.68359 13.3164 2.56641 13.2227 2.56641 13.043C2.56641 12.8555 2.68359 12.7578 2.91797 12.75C3.11328 12.75 3.32422 12.7734 3.55078 12.8203C3.77734 12.8672 3.98828 12.9062 4.18359 12.9375C5.01953 13.1172 5.66797 13.457 6.12891 13.957C6.58984 14.4492 6.66016 15.2578 6.33984 16.3828C6.03516 17.4219 5.99219 18.3008 6.21094 19.0195C6.4375 19.7383 7.16016 20.1328 8.37891 20.2031C9.44922 20.25 10.2812 19.9492 10.875 19.3008C11.4688 18.6523 11.8438 17.8008 12 16.7461C12.1094 16.0117 11.9492 15.1914 11.5195 14.2852C11.0898 13.3789 10.5156 12.4688 9.79688 11.5547C8.16406 9.49219 7.51953 8.02734 7.86328 7.16016C8.20703 6.28516 8.96484 5.32813 10.1367 4.28906V4.27734C10.1758 4.23828 10.2383 4.21875 10.3242 4.21875C10.5195 4.21875 10.6172 4.3125 10.6172 4.5C10.6172 4.57813 10.582 4.65234 10.5117 4.72266C9.84766 5.42578 9.8125 6.13281 10.4062 6.84375C10.8281 7.35938 11.2422 7.87109 11.6484 8.37891C12.0625 8.87891 12.4453 9.375 12.7969 9.86719C12.8984 9.99219 13.0039 9.99609 13.1133 9.87891C13.4414 9.46484 13.7734 9.05469 14.1094 8.64844C14.4453 8.23438 14.7852 7.81641 15.1289 7.39453C15.2695 7.22266 15.4219 7.20312 15.5859 7.33594C15.8672 7.57031 16.1406 7.80859 16.4062 8.05078C16.6797 8.28516 16.957 8.51953 17.2383 8.75391C17.3086 8.80859 17.3867 8.875 17.4727 8.95312C17.5586 9.03125 17.6016 9.11328 17.6016 9.19922C17.6016 9.26953 17.5469 9.36328 17.4375 9.48047C17.3359 9.58984 17.2422 9.69141 17.1562 9.78516L15.9141 11.2969ZM7.94531 11.168C6.39062 11.8633 4.875 11.9023 3.39844 11.2852C1.90625 10.6602 1.03516 9.44922 0.785156 7.65234C0.535156 5.85547 1.07031 4.19531 2.39062 2.67188C3.71094 1.14844 5.55078 0.386719 7.91016 0.386719C9.01953 0.386719 10.1367 0.570313 11.2617 0.9375C12.3867 1.30469 13.5234 1.79297 14.6719 2.40234C15.4297 2.80078 16.1719 2.875 16.8984 2.625C17.0547 2.5625 17.1719 2.51953 17.25 2.49609C17.4219 2.46484 17.5273 2.51172 17.5664 2.63672C17.6133 2.76172 17.543 2.89844 17.3555 3.04688C16.793 3.45313 16.2266 3.85547 15.6562 4.25391C15.0859 4.64453 14.5273 5.05078 13.9805 5.47266C13.7852 5.62891 13.5703 5.63281 13.3359 5.48438C12.6328 4.96875 11.6602 4.42969 10.418 3.86719C9.18359 3.30469 7.93359 3.02344 6.66797 3.02344C5.18359 3.02344 3.96875 3.44531 3.02344 4.28906C2.08594 5.13281 1.63672 6.21094 1.67578 7.52344C1.72266 8.82812 2.29688 9.84375 3.39844 10.5703C4.5 11.2969 5.91016 11.3242 7.62891 10.6523C7.76953 10.5977 7.88672 10.5859 7.98047 10.6172C8.07422 10.6406 8.13672 10.6875 8.16797 10.7578C8.20703 10.8203 8.20703 10.8945 8.16797 10.9805C8.13672 11.0586 8.0625 11.1211 7.94531 11.168Z" fill="#054220"/>
</svg>